<svg xmlns="http://www.w3.org/2000/svg" xmlns:xlink="http://www.w3.org/1999/xlink" id="Icon" x="0" y="0" enable-background="new 0 0 48 48" version="1.1" viewBox="0 0 48 48" xml:space="preserve"><linearGradient id="SVGID_1_" x1="24" x2="24" y1="0" y2="48.001" gradientUnits="userSpaceOnUse"><stop offset="0" style="stop-color:#318ccb"/><stop offset="1" style="stop-color:#293f7e"/></linearGradient><path fill="url(#SVGID_1_)" fill-rule="evenodd" d="M48,42c0,3.313-2.687,6-6,6H6c-3.313,0-6-2.687-6-6V6	c0-3.313,2.687-6,6-6h36c3.313,0,6,2.687,6,6V42z" clip-rule="evenodd"/><linearGradient id="SVGID_2_" x1="33" x2="15.207" y1="29.418" y2="29.418" gradientUnits="userSpaceOnUse"><stop offset=".313" style="stop-color:#b6e3ed"/><stop offset=".498" style="stop-color:#93d1e4"/><stop offset=".907" style="stop-color:#3ba2cd"/><stop offset="1" style="stop-color:#2697c8"/></linearGradient><polygon fill="url(#SVGID_2_)" fill-rule="evenodd" points="15.207 17.655 15.36 35.24 24.12 41.181 33 35.2 33 24.927" clip-rule="evenodd"/><linearGradient id="SVGID_3_" x1="33" x2="24.028" y1="32.868" y2="32.868" gradientUnits="userSpaceOnUse"><stop offset=".313" style="stop-color:#b6e3ed"/><stop offset=".498" style="stop-color:#93d1e4"/><stop offset=".907" style="stop-color:#3ba2cd"/><stop offset="1" style="stop-color:#2697c8"/></linearGradient><polygon fill="url(#SVGID_3_)" fill-rule="evenodd" points="33 24.927 33 35.2 24.19 41.181 24.028 24.557" clip-rule="evenodd" opacity=".5"/><linearGradient id="SVGID_4_" x1="24.5" x2="24.5" y1="13.481" y2="25.421" gradientUnits="userSpaceOnUse"><stop offset="0" style="stop-color:#b1e0ef"/><stop offset="1" style="stop-color:#a0c9d7"/></linearGradient><polygon fill="url(#SVGID_4_)" fill-rule="evenodd" points="24.577 13.481 15.487 19.534 24.441 25.421 33.514 19.39" clip-rule="evenodd"/><linearGradient id="SVGID_5_" x1="42.501" x2="24.577" y1="13.471" y2="13.471" gradientUnits="userSpaceOnUse"><stop offset=".08" style="stop-color:#b6e3ed"/><stop offset=".344" style="stop-color:#84c9e0"/><stop offset=".645" style="stop-color:#51aed3"/><stop offset=".873" style="stop-color:#329dcb"/><stop offset="1" style="stop-color:#2697c8"/></linearGradient><polygon fill="url(#SVGID_5_)" fill-rule="evenodd" points="33.564 7.553 24.577 13.481 33.514 19.39 42.501 13.46" clip-rule="evenodd"/><linearGradient id="SVGID_6_" x1="24.577" x2="6.5" y1="13.543" y2="13.543" gradientUnits="userSpaceOnUse"><stop offset=".08" style="stop-color:#b6e3ed"/><stop offset=".333" style="stop-color:#87d0e9"/><stop offset=".639" style="stop-color:#54bce5"/><stop offset=".871" style="stop-color:#35afe2"/><stop offset="1" style="stop-color:#29aae1"/></linearGradient><polygon fill="url(#SVGID_6_)" fill-rule="evenodd" points="15.59 7.553 6.5 13.605 15.487 19.534 24.577 13.481" clip-rule="evenodd"/><linearGradient id="SVGID_7_" x1="42.501" x2="24.441" y1="25.318" y2="25.318" gradientUnits="userSpaceOnUse"><stop offset=".08" style="stop-color:#b6e3ed"/><stop offset=".344" style="stop-color:#84c9e0"/><stop offset=".645" style="stop-color:#51aed3"/><stop offset=".873" style="stop-color:#329dcb"/><stop offset="1" style="stop-color:#2697c8"/></linearGradient><polygon fill="url(#SVGID_7_)" fill-rule="evenodd" points="33.514 19.39 24.441 25.421 33.514 31.248 42.501 25.32" clip-rule="evenodd"/><linearGradient id="SVGID_8_" x1="24.441" x2="6.5" y1="25.463" y2="25.463" gradientUnits="userSpaceOnUse"><stop offset=".08" style="stop-color:#b6e3ed"/><stop offset=".333" style="stop-color:#87d0e9"/><stop offset=".639" style="stop-color:#54bce5"/><stop offset=".871" style="stop-color:#35afe2"/><stop offset="1" style="stop-color:#29aae1"/></linearGradient><polygon fill="url(#SVGID_8_)" fill-rule="evenodd" points="15.487 19.534 6.5 25.463 15.487 31.392 24.441 25.421" clip-rule="evenodd" opacity=".84"/><linearGradient id="SVGID_9_" x1="20.032" x2="20.032" y1="13.481" y2="25.421" gradientUnits="userSpaceOnUse"><stop offset="0" style="stop-color:#e3f3f9"/><stop offset="1" style="stop-color:#c7f3f9"/></linearGradient><polygon fill="url(#SVGID_9_)" fill-rule="evenodd" points="24.441 25.421 15.487 19.534 24.577 13.481" clip-rule="evenodd"/></svg>