<svg xmlns="http://www.w3.org/2000/svg" xmlns:xlink="http://www.w3.org/1999/xlink" id="Icon" x="0" y="0" enable-background="new 176 76 48 48" version="1.1" viewBox="176 76 48 48" xml:space="preserve"><linearGradient id="SVGID_1_" x1="71.366" x2="71.366" y1="132.875" y2="121.375" gradientTransform="matrix(4.1667 0 0 -4.1667 -97.3177 629.646)" gradientUnits="userSpaceOnUse"><stop offset="0" style="stop-color:#95ce4a"/><stop offset="1" style="stop-color:#6b9911"/></linearGradient><path fill="url(#SVGID_1_)" d="M224,117.928c0,3.307-2.683,5.989-5.989,5.989h-35.938c-3.308,0-5.99-2.683-5.99-5.989V81.99	c0-3.307,2.682-5.99,5.99-5.99h35.938c3.307,0,5.989,2.683,5.989,5.99V117.928z"/><g id="SMqkte_2_"><g><g><path fill="#95CE4A" fill-rule="evenodd" d="M200.162,104.621c-0.267,1.029-0.585,2.327-0.939,3.614 c-0.203,0.73-0.723,1.146-1.479,0.995c-2.816-0.562-5.652-1.071-8.414-1.84c-0.655-0.182-1.334-1.23-1.513-1.994 c-0.721-3.087-1.375-6.201-1.808-9.338c-0.318-2.302,0.774-3.32,3.124-3.389c0.921-0.027,1.845-0.013,2.767-0.036 c0.993-0.024,1.349-0.37,1.37-1.382c0.023-1.054-0.021-2.109,0-3.163c0.027-1.445,0.694-2.273,2.105-2.568 c1.738-0.363,3.496-0.32,5.158,0.265c0.668,0.235,1.304,0.86,1.702,1.473c0.317,0.49,0.578,0.619,1.117,0.666 c2.382,0.208,4.774,0.38,7.13,0.767c1.865,0.307,2.67,1.297,2.774,3.143c0.246,4.3,0.65,8.609,0.552,12.904 c-0.089,3.883-0.61,7.778-2.304,11.394c-0.665,1.418-1.653,2.469-3.247,2.491c-2.056,0.029-4.126-0.099-6.173-0.313 c-1.201-0.125-1.938-1.048-2.06-2.21c-0.13-1.224-0.135-2.487,0.026-3.704c0.163-1.245,1.112-2.028,2.365-2.145 c0.876-0.082,1.766-0.016,2.688-0.016c0,0.797,0,1.529,0,2.315c-0.386,0.021-0.706,0.046-1.028,0.058 c-0.763,0.029-1.351,0.212-1.335,1.171c0.017,1.034,0.245,1.352,1.312,1.396c0.952,0.041,1.91,0.042,2.859-0.028 c0.862-0.062,1.408-0.564,1.391-1.475c-0.021-1.111-0.027-2.233-0.185-3.331c-0.191-1.344-0.975-1.949-2.324-2.093 c-1.011-0.108-2.023-0.239-3.021-0.435C200.984,107.466,200.336,106.579,200.162,104.621z M205.614,101.004 c1.12,0.138,2.172,0.267,3.224,0.396c0.147-1.234-0.315-1.971-1.361-2.108C206.399,99.151,205.791,99.71,205.614,101.004z" clip-rule="evenodd"/></g></g></g><path fill="#95CE4A" fill-rule="evenodd" d="M187.259,90.836c1.508-1.577,3.253-3.399,5.034-5.262	c0,1.529-0.026,2.947,0.012,4.362c0.018,0.676-0.189,0.936-0.9,0.914C189.915,90.803,188.42,90.836,187.259,90.836z" clip-rule="evenodd"/><g id="SMqkte_1_"><g><g><linearGradient id="SVGID_2_" x1="199.889" x2="199.889" y1="116.628" y2="83.29" gradientUnits="userSpaceOnUse"><stop offset="0" style="stop-color:#121212"/><stop offset=".495" style="stop-color:#0f0f0f"/><stop offset=".869" style="stop-color:#050505"/><stop offset="1" style="stop-color:#000"/></linearGradient><path fill="url(#SVGID_2_)" fill-rule="evenodd" d="M200.162,102.621c-0.267,1.029-0.585,2.327-0.939,3.614 c-0.203,0.73-0.723,1.146-1.479,0.995c-2.816-0.562-5.652-1.071-8.414-1.84c-0.655-0.182-1.334-1.23-1.513-1.994 c-0.721-3.087-1.375-6.201-1.808-9.338c-0.318-2.302,0.774-3.32,3.124-3.389c0.921-0.027,1.845-0.013,2.767-0.036 c0.993-0.024,1.349-0.37,1.37-1.382c0.023-1.054-0.021-2.109,0-3.163c0.027-1.445,0.694-2.273,2.105-2.568 c1.738-0.363,3.496-0.32,5.158,0.265c0.668,0.235,1.304,0.86,1.702,1.473c0.317,0.49,0.578,0.619,1.117,0.666 c2.382,0.208,4.774,0.38,7.13,0.767c1.865,0.307,2.67,1.297,2.774,3.143c0.246,4.3,0.65,8.609,0.552,12.904 c-0.089,3.883-0.61,7.778-2.304,11.394c-0.665,1.418-1.653,2.469-3.247,2.491c-2.056,0.029-4.126-0.099-6.173-0.313 c-1.201-0.125-1.938-1.048-2.06-2.21c-0.13-1.224-0.135-2.487,0.026-3.704c0.163-1.245,1.112-2.028,2.365-2.145 c0.876-0.082,1.766-0.016,2.688-0.016c0,0.797,0,1.529,0,2.315c-0.386,0.021-0.706,0.046-1.028,0.058 c-0.763,0.029-1.351,0.212-1.335,1.171c0.017,1.034,0.245,1.352,1.312,1.396c0.952,0.041,1.91,0.042,2.859-0.028 c0.862-0.062,1.408-0.564,1.391-1.475c-0.021-1.111-0.027-2.233-0.185-3.331c-0.191-1.344-0.975-1.949-2.324-2.093 c-1.011-0.108-2.023-0.239-3.021-0.435C200.984,105.466,200.336,104.579,200.162,102.621z M205.614,99.004 c1.12,0.138,2.172,0.267,3.224,0.396c0.147-1.234-0.315-1.97-1.361-2.108C206.399,97.151,205.791,97.71,205.614,99.004z" clip-rule="evenodd"/></g></g></g><linearGradient id="SVGID_3_" x1="189.783" x2="189.783" y1="89.852" y2="84.575" gradientUnits="userSpaceOnUse"><stop offset="0" style="stop-color:#000"/><stop offset="1" style="stop-color:#000"/></linearGradient><path fill="url(#SVGID_3_)" fill-rule="evenodd" d="M187.259,89.836c1.508-1.577,3.253-3.399,5.034-5.262	c0,1.529-0.026,2.947,0.012,4.362c0.018,0.676-0.189,0.936-0.9,0.914C189.915,89.803,188.42,89.836,187.259,89.836z" clip-rule="evenodd"/></svg>