<svg xmlns="http://www.w3.org/2000/svg" xmlns:xlink="http://www.w3.org/1999/xlink" id="Icon" x="0" y="0" enable-background="new 176 76 48 48" version="1.1" viewBox="176 76 48 48" xml:space="preserve"><linearGradient id="SVGID_1_" x1="71.366" x2="71.366" y1="132.875" y2="121.375" gradientTransform="matrix(4.1667 0 0 -4.1667 -97.3177 629.646)" gradientUnits="userSpaceOnUse"><stop offset="0" style="stop-color:#a6e6fb"/><stop offset="1" style="stop-color:#1e86bc"/></linearGradient><path fill="url(#SVGID_1_)" d="M224,117.928c0,3.307-2.683,5.989-5.989,5.989h-35.938c-3.308,0-5.99-2.683-5.99-5.989V81.99	c0-3.307,2.682-5.99,5.99-5.99h35.938c3.307,0,5.989,2.683,5.989,5.99V117.928z"/><g><defs><path id="SVGID_2_" d="M224,117.928c0,3.307-2.683,5.989-5.989,5.989h-35.938c-3.308,0-5.99-2.683-5.99-5.989V81.99 c0-3.307,2.682-5.99,5.99-5.99h35.938c3.307,0,5.989,2.683,5.989,5.99V117.928z"/></defs><clipPath id="SVGID_3_"><use overflow="visible" xlink:href="#SVGID_2_"/></clipPath><linearGradient id="SVGID_4_" x1="199.812" x2="199.812" y1="86.624" y2="115.251" gradientUnits="userSpaceOnUse"><stop offset="0" style="stop-color:#3186c2"/><stop offset="1" style="stop-color:#1d649c"/></linearGradient><path fill="url(#SVGID_4_)" d="M200.312,115.25c-0.001,0-0.002,0-0.002,0 c-0.686-0.001-1.34-0.283-1.812-0.78l-12.125-12.791c-0.465-0.491-0.711-1.148-0.684-1.824c0.028-0.675,0.329-1.311,0.833-1.761 l12.125-10.833c1.013-0.906,2.565-0.836,3.495,0.16l11.125,11.938c0.901,0.968,0.894,2.47-0.019,3.428l-11.125,11.688 C201.651,114.97,200.997,115.25,200.312,115.25z" clip-path="url(#SVGID_3_)" opacity=".7"/><path fill="#FFF" d="M218.062,75.688l-18.021,24.562L197.417,96c0,0-5.854,1.293-6.042,5.709 L200,108.75l24-20.125c0,0-0.5-12.938,0-12.938S218.062,75.688,218.062,75.688z" clip-path="url(#SVGID_3_)"/><linearGradient id="SVGID_5_" x1="189.27" x2="189.27" y1="85.416" y2="101.71" gradientUnits="userSpaceOnUse"><stop offset="0" style="stop-color:#d5ea8d"/><stop offset="1" style="stop-color:#a5c82d"/></linearGradient><circle cx="189.271" cy="93.562" r="8.146" fill="url(#SVGID_5_)" clip-path="url(#SVGID_3_)"/><path fill="#236EB4" d="M200.042,109.375c-0.168,0-0.336-0.057-0.475-0.169l-7.763-6.347 c-0.81,0.218-1.646,0.328-2.492,0.328c-5.273,0-9.562-4.29-9.562-9.562s4.29-9.562,9.562-9.562s9.562,4.29,9.562,9.562 c0,0.916-0.129,1.819-0.384,2.689l1.583,2.749l17.331-23.755c0.243-0.335,0.711-0.408,1.048-0.164 c0.334,0.244,0.407,0.713,0.163,1.048l-18.011,24.688c-0.149,0.204-0.383,0.324-0.646,0.307c-0.253-0.014-0.483-0.154-0.609-0.375 l-2.292-3.979c-0.075-0.131-0.109-0.281-0.098-0.432l0.015-0.198c0.004-0.057,0.015-0.113,0.032-0.167 c0.244-0.777,0.367-1.589,0.367-2.412c0-4.446-3.617-8.062-8.062-8.062s-8.062,3.617-8.062,8.062s3.617,8.062,8.062,8.062 c0.768,0,1.526-0.107,2.257-0.319c0.268-0.156,0.601-0.147,0.843,0.051l7.626,6.234l23.8-19.745 c0.317-0.264,0.474,0.042,0.738,0.362c0.265,0.319,0.221,0.792-0.099,1.056l-23.958,19.875 C200.382,109.317,200.212,109.375,200.042,109.375z" clip-path="url(#SVGID_3_)"/></g></svg>