<svg xmlns="http://www.w3.org/2000/svg" xmlns:xlink="http://www.w3.org/1999/xlink" id="Icon" x="0" y="0" enable-background="new 456 256 48 48" version="1.1" viewBox="456 256 48 48" xml:space="preserve"><linearGradient id="SVGID_1_" x1="351.366" x2="351.366" y1="312.875" y2="301.375" gradientTransform="matrix(4.1667 0 0 -4.1667 -983.9935 1559.6541)" gradientUnits="userSpaceOnUse"><stop offset="0" style="stop-color:#f16528"/><stop offset="1" style="stop-color:#e54d26"/></linearGradient><path fill="url(#SVGID_1_)" d="M504,297.928c0,3.307-2.683,5.989-5.989,5.989h-35.938c-3.308,0-5.99-2.683-5.99-5.989V261.99	c0-3.307,2.682-5.99,5.99-5.99h35.938c3.307,0,5.989,2.683,5.989,5.99V297.928z"/><polygon fill="#CC3C1F" points="493.5 264.949 493.041 270.723 472.5 270.723 472.857 276.236 492.481 276.236 491.156 293.034 480.095 296.259 468.983 293.087 468.167 284.556 473.571 284.556 473.978 288.769 479.993 290.642 486.007 288.769 486.518 281.748 467.963 281.748 466.486 264.949"/><g opacity=".15"><defs><path id="SVGID_2_" d="M504,297.928c0,3.307-2.683,5.989-5.989,5.989h-35.938c-3.308,0-5.99-2.683-5.99-5.989 V261.99c0-3.307,2.682-5.99,5.99-5.99h35.938c3.307,0,5.989,2.683,5.989,5.99V297.928z" opacity=".15"/></defs><clipPath id="SVGID_3_"><use overflow="visible" xlink:href="#SVGID_2_"/></clipPath><rect width="23.833" height="48" x="480.167" y="256" fill="#FFF" clip-path="url(#SVGID_3_)"/></g><polygon fill="#FFF" points="493.5 266.574 493.041 272.232 472.5 272.232 472.857 277.635 492.481 277.635 491.156 294.099 480.095 297.259 468.983 294.15 468.167 285.79 473.571 285.79 473.978 289.918 479.993 291.754 486.007 289.918 486.518 283.038 467.963 283.038 466.486 266.574"/><polygon fill="#EBEBEB" points="480.095 297.259 468.983 294.15 468.167 285.79 473.571 285.79 473.978 289.918 480.095 291.754"/><polygon fill="#EBEBEB" points="480.167 283.038 467.963 283.038 466.486 266.574 480.167 266.574 480.167 272.232 472.5 272.232 472.857 277.635 480.17 277.635"/></svg>