<svg xmlns="http://www.w3.org/2000/svg" xmlns:xlink="http://www.w3.org/1999/xlink" id="Icon" x="0" y="0" enable-background="new 456 256 48 48" version="1.1" viewBox="456 256 48 48" xml:space="preserve"><linearGradient id="SVGID_1_" x1="351.366" x2="351.366" y1="312.875" y2="301.375" gradientTransform="matrix(4.1667 0 0 -4.1667 -983.9935 1559.6541)" gradientUnits="userSpaceOnUse"><stop offset="0" style="stop-color:#f6f8f3"/><stop offset=".14" style="stop-color:#f2f4ef"/><stop offset=".293" style="stop-color:#e8e7e1"/><stop offset=".452" style="stop-color:#d7d2cc"/><stop offset=".615" style="stop-color:#beb4ad"/><stop offset=".782" style="stop-color:#9f8e86"/><stop offset=".949" style="stop-color:#796156"/><stop offset="1" style="stop-color:#6c5146"/></linearGradient><path fill="url(#SVGID_1_)" d="M504,297.928c0,3.307-2.683,5.989-5.989,5.989h-35.938c-3.308,0-5.99-2.683-5.99-5.989V261.99	c0-3.307,2.682-5.99,5.99-5.99h35.938c3.307,0,5.989,2.683,5.989,5.99V297.928z"/><linearGradient id="SVGID_2_" x1="351.346" x2="351.346" y1="312.875" y2="309.293" gradientTransform="matrix(4.1667 0 0 -4.1667 -983.9935 1559.6541)" gradientUnits="userSpaceOnUse"><stop offset="0" style="stop-color:#a36f59"/><stop offset="1" style="stop-color:#63362c"/></linearGradient><path fill="url(#SVGID_2_)" d="M503.916,270.928v-8.938c0-3.307-2.682-5.99-5.988-5.99H461.99c-3.308,0-5.99,2.683-5.99,5.99v8.938	H503.916z"/><g id="FiFizv_1_"><image id="FiFizv" width="144" height="144" overflow="visible" transform="matrix(1 0 0 1 759 934)" xlink:href="19C10E8D56B22E12.jpg"/></g><g><circle cx="480.062" cy="280.812" r="13.688" fill="#372D24" opacity=".75"/><linearGradient id="SVGID_3_" x1="480.062" x2="480.062" y1="266.625" y2="293" gradientUnits="userSpaceOnUse"><stop offset="0" style="stop-color:#e0e0e0"/><stop offset="1" style="stop-color:#948888"/></linearGradient><circle cx="480.062" cy="279.812" r="13.188" fill="url(#SVGID_3_)"/><circle cx="480.062" cy="279.812" r="11.438" fill="#0F0B0A"/><linearGradient id="SVGID_4_" x1="480.063" x2="480.063" y1="290.625" y2="269" gradientUnits="userSpaceOnUse"><stop offset="0" style="stop-color:#476364"/><stop offset="1" style="stop-color:#111214"/></linearGradient><circle cx="480.062" cy="279.812" r="10.812" fill="url(#SVGID_4_)"/><linearGradient id="SVGID_5_" x1="480.062" x2="480.062" y1="271.625" y2="288" gradientUnits="userSpaceOnUse"><stop offset="0" style="stop-color:#2c424d"/><stop offset="1" style="stop-color:#2a2f33"/></linearGradient><circle cx="480.062" cy="279.812" r="8.188" fill="url(#SVGID_5_)"/><circle cx="480.062" cy="279.812" r="5.438" fill="#16201F"/><circle cx="480.062" cy="279.812" r="5.021" fill="#293332"/><circle cx="480.062" cy="279.812" r="4.542" fill="#101615"/><circle cx="480.062" cy="276.75" r="3.688" fill="#49405D" opacity=".4"/><circle cx="480.062" cy="277.75" r="2.625" fill="#49405D" opacity=".4"/><circle cx="480.125" cy="278.312" r="1.969" fill="#49405D" opacity=".5"/><circle cx="480.062" cy="273.5" r="4.5" fill="#76AFCD" opacity=".06"/><circle cx="480.062" cy="272.5" r="3.5" fill="#76AFCD" opacity=".07"/><circle cx="480.031" cy="273.031" r="3.969" fill="#76AFCD" opacity=".06"/><circle cx="480.062" cy="272.094" r="3.094" fill="#76AFCD" opacity=".06"/><circle cx="480.094" cy="271.531" r="2.531" fill="#76AFCD" opacity=".06"/><circle cx="480.078" cy="271.016" r="1.953" fill="#76AFCD" opacity=".06"/><circle cx="480.094" cy="270.531" r="1.531" fill="#76AFCD" opacity=".06"/><ellipse cx="485.562" cy="282.625" fill="#76AF9F" opacity=".06" rx="6.25" ry="4.5" transform="matrix(-0.4997 0.8662 -0.8662 -0.4997 973.0029 3.2513)"/><ellipse cx="485.941" cy="282.826" fill="#76AF9F" opacity=".06" rx="5.656" ry="4.071" transform="matrix(-0.4996 0.8663 -0.8663 -0.4996 973.7116 3.1675)"/><ellipse cx="486.429" cy="283.125" fill="#76AF9F" opacity=".06" rx="4.861" ry="3.5" transform="matrix(-0.4996 0.8662 -0.8662 -0.4996 974.7131 3.2125)"/><ellipse cx="486.855" cy="283.34" fill="#76AF9F" opacity=".06" rx="4.198" ry="3.022" transform="matrix(-0.4997 0.8662 -0.8662 -0.4997 975.5553 3.1931)"/><ellipse cx="487.246" cy="283.646" fill="#76AF9F" opacity=".06" rx="3.516" ry="2.531" transform="matrix(-0.4997 0.8662 -0.8662 -0.4997 976.4149 3.3289)"/><ellipse cx="487.623" cy="283.894" fill="#76AF9F" opacity=".06" rx="2.89" ry="2.081" transform="matrix(-0.4997 0.8662 -0.8662 -0.4997 977.2089 3.3984)"/><ellipse cx="488.112" cy="284.146" fill="#76AF9F" opacity=".06" rx="2.126" ry="1.531" transform="matrix(-0.4997 0.8662 -0.8662 -0.4997 978.1479 3.33)"/><ellipse cx="479.75" cy="287.187" fill="#568CC7" opacity=".07" rx="6.25" ry="3" transform="matrix(-1 -0.0013 0.0013 -1 959.1182 575.011)"/><ellipse cx="479.766" cy="287.527" fill="#568CC7" opacity=".07" rx="5.543" ry="2.66" transform="matrix(-1 -0.0011 0.0011 -1 959.2017 575.603)"/><ellipse cx="479.75" cy="287.854" fill="#568CC7" opacity=".07" rx="4.861" ry="2.333" transform="matrix(-1 -0.0012 0.0012 -1 959.1517 576.287)"/><ellipse cx="479.705" cy="288.201" fill="#568CC7" opacity=".07" rx="4.14" ry="1.989" transform="matrix(-1 -0.0013 0.0013 -1 959.0359 577.0235)"/><ellipse cx="479.705" cy="288.5" fill="#568CC7" opacity=".07" rx="3.516" ry="1.688"/><path fill="#568CC7" d="M477.078,288.854c0-0.734,1.242-1.33,2.773-1.326c1.532,0.002,2.77,0.6,2.769,1.334 c0,0.734-1.243,1.329-2.771,1.328C478.315,290.186,477.077,289.588,477.078,288.854z" opacity=".07"/><ellipse cx="479.704" cy="289.167" fill="#568CC7" opacity=".07" rx="2.126" ry="1.021"/><circle cx="480.094" cy="279.906" r=".719" fill="#665778"/></g><path fill="#815F55" d="M501.062,267.125c0,1.104-0.896,2-2,2H493.5c-1.104,0-2-0.896-2-2v-5.438c0-1.104,0.896-2,2-2h5.562	c1.104,0,2,0.896,2,2V267.125z"/><g><path fill="#070200" d="M501.062,266.562c0,1.104-0.896,2-2,2H493.5c-1.104,0-2-0.896-2-2v-5.438c0-1.104,0.896-2,2-2h5.562 c1.104,0,2,0.896,2,2V266.562z"/><path fill="#192123" d="M500.562,266.278c0,0.989-0.802,1.791-1.791,1.791h-4.98c-0.989,0-1.791-0.802-1.791-1.791v-4.869 c0-0.989,0.802-1.791,1.791-1.791h4.98c0.989,0,1.791,0.802,1.791,1.791V266.278z"/><linearGradient id="SVGID_6_" x1="493.206" x2="499.357" y1="260.769" y2="266.92" gradientUnits="userSpaceOnUse"><stop offset="0" style="stop-color:#061115"/><stop offset=".208" style="stop-color:#0b181b"/><stop offset=".504" style="stop-color:#192a2a"/><stop offset=".851" style="stop-color:#2f4943"/><stop offset="1" style="stop-color:#3a5850"/></linearGradient><path fill="url(#SVGID_6_)" d="M499.812,265.852c0,0.816-0.661,1.477-1.478,1.477h-4.107c-0.816,0-1.478-0.661-1.478-1.477v-4.016 c0-0.815,0.661-1.477,1.478-1.477h4.107c0.816,0,1.478,0.661,1.478,1.477V265.852z"/><circle cx="496.344" cy="263.844" r="2.656" fill="#180D13"/><linearGradient id="SVGID_7_" x1="496.344" x2="496.344" y1="266.125" y2="261.563" gradientUnits="userSpaceOnUse"><stop offset="0" style="stop-color:#302536"/><stop offset=".482" style="stop-color:#2b283d"/><stop offset="1" style="stop-color:#212f4a"/></linearGradient><circle cx="496.344" cy="263.844" r="2.281" fill="url(#SVGID_7_)"/><circle cx="497.417" cy="262.25" r=".541" fill="#FFF" opacity=".25"/><circle cx="498.25" cy="262.833" r=".416" fill="#FFF" opacity=".25"/></g><linearGradient id="SVGID_8_" x1="460.475" x2="460.475" y1="270.928" y2="256.007" gradientUnits="userSpaceOnUse"><stop offset="0" style="stop-color:#822c37"/><stop offset=".004" style="stop-color:#872c38"/><stop offset=".035" style="stop-color:#a62d3f"/><stop offset=".07" style="stop-color:#c22f45"/><stop offset=".109" style="stop-color:#d82f4a"/><stop offset=".155" style="stop-color:#e9304e"/><stop offset=".212" style="stop-color:#f43150"/><stop offset=".291" style="stop-color:#fb3152"/><stop offset=".512" style="stop-color:#fd3152"/><stop offset=".707" style="stop-color:#c62f46"/><stop offset=".901" style="stop-color:#952d3b"/><stop offset=".997" style="stop-color:#822c37"/></linearGradient><path fill="url(#SVGID_8_)" d="M461.702,256.007c-0.881,0.041-1.713,0.273-2.454,0.656v14.264h2.454V256.007z"/><linearGradient id="SVGID_9_" x1="462.906" x2="462.906" y1="270.938" y2="256" gradientUnits="userSpaceOnUse"><stop offset="0" style="stop-color:#a06a2a"/><stop offset=".013" style="stop-color:#a9762c"/><stop offset=".049" style="stop-color:#be9131"/><stop offset=".09" style="stop-color:#cea736"/><stop offset=".138" style="stop-color:#dbb839"/><stop offset=".198" style="stop-color:#e4c33b"/><stop offset=".281" style="stop-color:#eaca3d"/><stop offset=".512" style="stop-color:#ebcc3d"/><stop offset=".643" style="stop-color:#d4ae37"/><stop offset=".88" style="stop-color:#af7d2e"/><stop offset=".997" style="stop-color:#a06a2a"/></linearGradient><rect width="2.469" height="14.938" x="461.672" y="256" fill="url(#SVGID_9_)"/><linearGradient id="SVGID_10_" x1="465.364" x2="465.364" y1="270.938" y2="256" gradientUnits="userSpaceOnUse"><stop offset="0" style="stop-color:#3c694a"/><stop offset=".009" style="stop-color:#407150"/><stop offset=".045" style="stop-color:#4d8c65"/><stop offset=".087" style="stop-color:#58a275"/><stop offset=".135" style="stop-color:#60b382"/><stop offset=".195" style="stop-color:#66be8b"/><stop offset=".279" style="stop-color:#69c591"/><stop offset=".512" style="stop-color:#6ac792"/><stop offset=".63" style="stop-color:#5dad7e"/><stop offset=".876" style="stop-color:#457c59"/><stop offset=".997" style="stop-color:#3c694a"/></linearGradient><rect width="2.469" height="14.938" x="464.13" y="256" fill="url(#SVGID_10_)"/><linearGradient id="SVGID_11_" x1="467.823" x2="467.823" y1="270.938" y2="256" gradientUnits="userSpaceOnUse"><stop offset="0" style="stop-color:#2456d3"/><stop offset=".024" style="stop-color:#2b60dc"/><stop offset=".079" style="stop-color:#3871eb"/><stop offset=".148" style="stop-color:#417cf6"/><stop offset=".244" style="stop-color:#4683fc"/><stop offset=".512" style="stop-color:#4785fe"/><stop offset=".776" style="stop-color:#3269e4"/><stop offset=".997" style="stop-color:#2456d3"/></linearGradient><rect width="2.469" height="14.938" x="466.589" y="256" fill="url(#SVGID_11_)"/></svg>