<svg xmlns="http://www.w3.org/2000/svg" xmlns:xlink="http://www.w3.org/1999/xlink" id="Icon" x="0" y="0" enable-background="new 456 256 48 48" version="1.1" viewBox="456 256 48 48" xml:space="preserve"><linearGradient id="SVGID_1_" x1="351.366" x2="351.366" y1="312.875" y2="301.375" gradientTransform="matrix(4.1667 0 0 -4.1667 -983.9935 1559.6541)" gradientUnits="userSpaceOnUse"><stop offset="0" style="stop-color:#fff"/><stop offset="1" style="stop-color:#eaeaea"/></linearGradient><path fill="url(#SVGID_1_)" d="M504,297.928c0,3.307-2.683,5.989-5.989,5.989h-35.938c-3.308,0-5.99-2.683-5.99-5.989V261.99	c0-3.307,2.682-5.99,5.99-5.99h35.938c3.307,0,5.989,2.683,5.989,5.99V297.928z"/><path fill="#DBDBDB" d="M480.44,285.698c-1.552-1.789-2.493-4.138-2.493-6.707c0-5.024,3.597-9.198,8.325-10.026	C486.272,268.966,488.552,281.026,480.44,285.698z"/><path fill="#DBDBDB" d="M495.547,285.708c1.556-1.792,2.499-4.143,2.499-6.716c0-5.045-3.625-9.232-8.383-10.036	C489.663,268.956,487.624,281.646,495.547,285.708z"/><path fill="#DBDBDB" d="M483.185,287.926c1.428,0.792,3.068,1.24,4.812,1.24c1.741,0,3.38-0.447,4.809-1.236	c0,0-4.412-2.445-4.742-6.596C488.063,281.334,487.692,284.946,483.185,287.926z"/><path fill="#DBDBDB" d="M480.457,285.698c1.552-1.789,2.492-4.138,2.492-6.707c0-5.024-3.596-9.198-8.324-10.026	C474.625,268.966,472.345,281.026,480.457,285.698z"/><path fill="#DBDBDB" d="M465.352,285.708c-1.557-1.792-2.5-4.143-2.5-6.716c0-5.045,3.626-9.232,8.383-10.036	C471.234,268.956,473.272,281.646,465.352,285.708z"/><path fill="#DBDBDB" d="M477.713,287.926c-1.429,0.792-3.069,1.24-4.813,1.24c-1.742,0-3.38-0.447-4.808-1.236	c0,0,4.411-2.445,4.742-6.596C472.834,281.334,473.205,284.946,477.713,287.926z"/><linearGradient id="SVGID_2_" x1="482.258" x2="482.258" y1="270.216" y2="286.742" gradientUnits="userSpaceOnUse"><stop offset="0" style="stop-color:#0d60aa"/><stop offset=".315" style="stop-color:#0f5aa3"/><stop offset=".757" style="stop-color:#154991"/><stop offset="1" style="stop-color:#193d84"/></linearGradient><path fill="url(#SVGID_2_)" d="M480.44,286.741c-1.552-1.767-2.493-4.087-2.493-6.624c0-4.962,3.597-9.084,8.325-9.902	C486.272,270.216,488.552,282.127,480.44,286.741z"/><linearGradient id="SVGID_3_" x1="493.736" x2="493.736" y1="270.206" y2="286.752" gradientUnits="userSpaceOnUse"><stop offset="0" style="stop-color:#0d60aa"/><stop offset=".315" style="stop-color:#0f5aa3"/><stop offset=".757" style="stop-color:#154991"/><stop offset="1" style="stop-color:#193d84"/></linearGradient><path fill="url(#SVGID_3_)" d="M495.547,286.751c1.556-1.77,2.499-4.092,2.499-6.633c0-4.982-3.625-9.118-8.383-9.912	C489.663,270.206,487.624,282.739,495.547,286.751z"/><linearGradient id="SVGID_4_" x1="487.995" x2="487.995" y1="282.431" y2="290.166" gradientUnits="userSpaceOnUse"><stop offset="0" style="stop-color:#0d60aa"/><stop offset=".315" style="stop-color:#0f5aa3"/><stop offset=".757" style="stop-color:#154991"/><stop offset="1" style="stop-color:#193d84"/></linearGradient><path fill="url(#SVGID_4_)" d="M483.185,288.941c1.428,0.782,3.068,1.225,4.812,1.225c1.741,0,3.38-0.441,4.809-1.221	c0,0-4.412-2.415-4.742-6.515C488.063,282.431,487.692,285.998,483.185,288.941z"/><circle cx="165.773" cy="229.752" r="109.375" fill="#EAEAEA"/><linearGradient id="SVGID_5_" x1="478.639" x2="478.639" y1="270.216" y2="286.742" gradientUnits="userSpaceOnUse"><stop offset="0" style="stop-color:#0d60aa"/><stop offset=".315" style="stop-color:#0f5aa3"/><stop offset=".757" style="stop-color:#154991"/><stop offset="1" style="stop-color:#193d84"/></linearGradient><path fill="url(#SVGID_5_)" d="M480.457,286.741c1.552-1.767,2.492-4.087,2.492-6.624c0-4.962-3.596-9.084-8.324-9.902	C474.625,270.216,472.345,282.127,480.457,286.741z"/><linearGradient id="SVGID_6_" x1="480.533" x2="480.533" y1="273.564" y2="286.742" gradientUnits="userSpaceOnUse"><stop offset="0" style="stop-color:#e53b31"/><stop offset=".294" style="stop-color:#de3b31"/><stop offset=".709" style="stop-color:#cc3b31"/><stop offset="1" style="stop-color:#bb3b31"/></linearGradient><path fill="url(#SVGID_6_)" d="M480.457,286.741c1.552-1.767,2.492-4.087,2.492-6.624c0-2.504-0.916-4.794-2.431-6.554	C480.519,273.564,475.155,280.242,480.457,286.741z"/><linearGradient id="SVGID_7_" x1="467.16" x2="467.16" y1="270.206" y2="286.752" gradientUnits="userSpaceOnUse"><stop offset="0" style="stop-color:#0d60aa"/><stop offset=".315" style="stop-color:#0f5aa3"/><stop offset=".757" style="stop-color:#154991"/><stop offset="1" style="stop-color:#193d84"/></linearGradient><path fill="url(#SVGID_7_)" d="M465.352,286.751c-1.557-1.77-2.5-4.092-2.5-6.633c0-4.982,3.626-9.118,8.383-9.912	C471.234,270.206,473.272,282.739,465.352,286.751z"/><linearGradient id="SVGID_8_" x1="472.903" x2="472.903" y1="282.431" y2="290.166" gradientUnits="userSpaceOnUse"><stop offset="0" style="stop-color:#0d60aa"/><stop offset=".315" style="stop-color:#0f5aa3"/><stop offset=".757" style="stop-color:#154991"/><stop offset="1" style="stop-color:#193d84"/></linearGradient><path fill="url(#SVGID_8_)" d="M477.713,288.941c-1.429,0.782-3.069,1.225-4.813,1.225c-1.742,0-3.38-0.441-4.808-1.221	c0,0,4.411-2.415,4.742-6.515C472.834,282.431,473.205,285.998,477.713,288.941z"/></svg>