<svg xmlns="http://www.w3.org/2000/svg" xmlns:xlink="http://www.w3.org/1999/xlink" id="Icon" x="0" y="0" enable-background="new 456 256 48 48" version="1.1" viewBox="456 256 48 48" xml:space="preserve"><linearGradient id="SVGID_1_" x1="351.366" x2="351.366" y1="312.875" y2="301.375" gradientTransform="matrix(4.1667 0 0 -4.1667 -983.9935 1559.6541)" gradientUnits="userSpaceOnUse"><stop offset="0" style="stop-color:#809cc8"/><stop offset="1" style="stop-color:#5776a3"/></linearGradient><path fill="url(#SVGID_1_)" d="M504,297.928c0,3.307-2.683,5.989-5.989,5.989h-35.938c-3.308,0-5.99-2.683-5.99-5.989V261.99	c0-3.307,2.682-5.99,5.99-5.99h35.938c3.307,0,5.989,2.683,5.989,5.99V297.928z"/><g><defs><path id="SVGID_2_" d="M504,298.011c0,3.307-2.683,5.989-5.989,5.989h-35.938c-3.308,0-5.989-2.683-5.989-5.989v-35.938 c0-3.307,2.682-5.99,5.989-5.99h35.938c3.307,0,5.989,2.683,5.989,5.99V298.011z"/></defs><clipPath id="SVGID_3_"><use overflow="visible" xlink:href="#SVGID_2_"/></clipPath><path fill="#4D6E96" d="M500.917,254c0,0-30.667,8.75-44.917,17.333v11.917c0,0,36.916-5.5,38.75-2.25 s-28.417,14.833-38.75,16.25V302c0,0,37.166-9.666,48-17.166v-14.5c0,0-33.5,5.333-35.334,2.833 c-1.832-2.5,14.834-10.5,35.334-15.167C504,258,503.823,254,500.917,254z" clip-path="url(#SVGID_3_)"/><path fill="#FFF" d="M500.917,256c0,0-30.667,8.75-44.917,17.333v11.917c0,0,36.916-5.5,38.75-2.25 s-28.417,14.833-38.75,16.25V304c0,0,37.166-9.666,48-17.166v-14.5c0,0-33.5,5.333-35.334,2.833 c-1.832-2.5,14.834-10.5,35.334-15.167C504,260,503.823,256,500.917,256z" clip-path="url(#SVGID_3_)"/></g></svg>