<svg xmlns="http://www.w3.org/2000/svg" xmlns:xlink="http://www.w3.org/1999/xlink" id="Icon" x="0" y="0" enable-background="new 456 256 48 48" version="1.1" viewBox="456 256 48 48" xml:space="preserve"><linearGradient id="SVGID_1_" x1="351.366" x2="351.366" y1="312.875" y2="301.375" gradientTransform="matrix(4.1667 0 0 -4.1667 -983.9935 1559.6541)" gradientUnits="userSpaceOnUse"><stop offset="0" style="stop-color:#3eabba"/><stop offset=".251" style="stop-color:#3ea4aa"/><stop offset=".742" style="stop-color:#3e937f"/><stop offset=".779" style="stop-color:#3e927c"/></linearGradient><path fill="url(#SVGID_1_)" d="M504,297.928c0,3.307-2.683,5.989-5.989,5.989h-35.938c-3.308,0-5.99-2.683-5.99-5.989V261.99	c0-3.307,2.682-5.99,5.99-5.99h35.938c3.307,0,5.989,2.683,5.989,5.99V297.928z"/><polygon fill="#2F7C73" points="480.284 273.961 475.435 289.668 465.419 289.668 480.284 264.292 480.342 264.292 495.207 289.668 485.191 289.668 480.342 273.961"/><polygon fill="#FFF" points="480.285 277.041 475.563 292.334 465.811 292.334 480.285 267.625 480.341 267.625 494.815 292.334 485.063 292.334 480.341 277.041"/></svg>