<svg xmlns="http://www.w3.org/2000/svg" xmlns:xlink="http://www.w3.org/1999/xlink" id="Icon" x="0" y="0" enable-background="new 176 76 48 48" version="1.1" viewBox="176 76 48 48" xml:space="preserve"><linearGradient id="SVGID_1_" x1="71.366" x2="71.366" y1="132.875" y2="121.375" gradientTransform="matrix(4.1667 0 0 -4.1667 -97.3177 629.646)" gradientUnits="userSpaceOnUse"><stop offset="0" style="stop-color:#2f4e68"/><stop offset="1" style="stop-color:#22394c"/></linearGradient><path fill="url(#SVGID_1_)" d="M224,117.928c0,3.307-2.683,5.989-5.989,5.989h-35.938c-3.308,0-5.99-2.683-5.99-5.989V81.99	c0-3.307,2.682-5.99,5.99-5.99h35.938c3.307,0,5.989,2.683,5.989,5.99V117.928z"/><path fill="#22394C" d="M201.37,81.311v8.522h8.469v5.347h-8.469v11.01c0,0-0.159,6.14,9.422,1.905v5.24	c0,0-3.335,1.271-8.681,1.271c-5.347,0-7.834-2.807-7.834-6.141c0-3.335,0-13.393,0-13.393h-4.235v-4.235	c0,0,6.882-2.488,6.934-9.528H201.37z"/><path fill="#FFF" d="M201.37,83.311v8.522h8.469v5.347h-8.469v11.01c0,0-0.159,6.14,9.422,1.905v5.24	c0,0-3.335,1.271-8.681,1.271c-5.347,0-7.834-2.807-7.834-6.141c0-3.335,0-13.393,0-13.393h-4.235v-4.235	c0,0,6.882-2.488,6.934-9.528H201.37z"/></svg>