<svg xmlns="http://www.w3.org/2000/svg" xmlns:xlink="http://www.w3.org/1999/xlink" id="Icon" x="0" y="0" enable-background="new 0 0 48 48" version="1.1" viewBox="0 0 48 48" xml:space="preserve"><linearGradient id="SVGID_1_" x1="24" x2="24" y1="0" y2="48.001" gradientUnits="userSpaceOnUse"><stop offset="0" style="stop-color:#303030"/><stop offset="1" style="stop-color:#1a1a1a"/></linearGradient><path fill="url(#SVGID_1_)" fill-rule="evenodd" d="M48,42c0,3.313-2.687,6-6,6H6c-3.313,0-6-2.687-6-6V6	c0-3.313,2.687-6,6-6h36c3.313,0,6,2.687,6,6V42z" clip-rule="evenodd"/><linearGradient id="SVGID_2_" x1="24.596" x2="24.596" y1="6.833" y2="15.036" gradientUnits="userSpaceOnUse"><stop offset="0" style="stop-color:#a1d296"/><stop offset="1" style="stop-color:#5bc472"/></linearGradient><circle cx="24.596" cy="10.935" r="4.101" fill="url(#SVGID_2_)" fill-rule="evenodd" clip-rule="evenodd"/><linearGradient id="SVGID_3_" x1="24.596" x2="24.596" y1="32.465" y2="40.667" gradientUnits="userSpaceOnUse"><stop offset="0" style="stop-color:#a1d296"/><stop offset="1" style="stop-color:#5bc472"/></linearGradient><circle cx="24.596" cy="36.566" r="4.101" fill="url(#SVGID_3_)" fill-rule="evenodd" clip-rule="evenodd"/><linearGradient id="SVGID_4_" x1="11.268" x2="11.268" y1="19.137" y2="27.339" gradientUnits="userSpaceOnUse"><stop offset="0" style="stop-color:#a1d296"/><stop offset="1" style="stop-color:#5bc472"/></linearGradient><circle cx="11.268" cy="23.238" r="4.101" fill="url(#SVGID_4_)" fill-rule="evenodd" clip-rule="evenodd"/><linearGradient id="SVGID_5_" x1="36.898" x2="36.898" y1="19.137" y2="27.339" gradientUnits="userSpaceOnUse"><stop offset="0" style="stop-color:#a1d296"/><stop offset="1" style="stop-color:#5bc472"/></linearGradient><circle cx="36.899" cy="23.238" r="4.101" fill="url(#SVGID_5_)" fill-rule="evenodd" clip-rule="evenodd"/><g><g><path fill="#FFF" d="M19.736,33.791c-2.494-1.162-4.485-3.229-5.547-5.777c-1.905,1.232-4.006,0.717-4.006,0.717 c1.476,4.223,4.785,7.592,8.968,9.147C18.583,35.475,19.736,33.791,19.736,33.791z"/></g></g><g><g><path fill="#FFF" d="M19.135,9.694c-3.784,1.413-6.851,4.31-8.489,7.978c0,0,2.132-0.381,3.931,1.052 c1.127-2.176,2.957-3.93,5.187-4.962C18.557,11.523,19.135,9.694,19.135,9.694z"/></g></g><g><g><path fill="#FFF" d="M30.098,9.881c0,0,0.469,1.906-0.768,4.044c1.981,0.999,3.623,2.579,4.699,4.514 c2.029-1.218,4.133-0.657,4.133-0.657C36.604,14.216,33.7,11.367,30.098,9.881z"/></g></g><g><g><path fill="#FFF" d="M34.456,28.275c-1.035,2.313-2.845,4.208-5.097,5.352c0,0,1.211,1.602,0.723,4.065 c4.013-1.651,7.159-4.991,8.551-9.13C36.266,29.25,34.456,28.275,34.456,28.275z"/></g></g></svg>