<svg xmlns="http://www.w3.org/2000/svg" xmlns:xlink="http://www.w3.org/1999/xlink" id="Icon" x="0" y="0" enable-background="new 0 0 48 48" version="1.1" viewBox="0 0 48 48" xml:space="preserve"><linearGradient id="SVGID_1_" x1="24" x2="24" y1="0" y2="48.001" gradientUnits="userSpaceOnUse"><stop offset="0" style="stop-color:#aecd46"/><stop offset="1" style="stop-color:#6aa326"/></linearGradient><path fill="url(#SVGID_1_)" fill-rule="evenodd" d="M48,42c0,3.313-2.687,6-6,6H6c-3.313,0-6-2.687-6-6V6	c0-3.313,2.687-6,6-6h36c3.313,0,6,2.687,6,6V42z" clip-rule="evenodd"/><path fill="#C1D667" fill-rule="evenodd" d="M19.992,12.085c0,0,0.254,1.605,2.419,1.605	c2.165,0,11.077,0,11.077,0s1.019,0.371-0.128,1.359c-1.146,0.988-14.259,15.562-14.259,15.562s-0.255,0.988,1.273,0.617	c1.527-0.37,4.584,1.111,6.11,2.717c1.529,1.606,6.24,2.225,8.022,1.111c0,0,0.763,2.595-1.782,4.2	c-2.547,1.606-4.456,1.236-7.131-0.864c-2.673-2.101-4.965-3.952-8.021-3.952s-5.73-0.865-3.947-2.965	c1.782-2.1,11.841-13.709,11.841-13.709L19.61,17.89c0,0-2.928-0.493-2.419-3.087C17.7,12.208,19.992,12.085,19.992,12.085z" clip-rule="evenodd"/><path fill="#262626" fill-rule="evenodd" d="M19.992,10.178c0,0,0.254,1.605,2.419,1.605	c2.165,0,11.077,0,11.077,0s1.019,0.371-0.128,1.359c-1.146,0.988-14.259,15.563-14.259,15.563s-0.255,0.988,1.273,0.617	c1.527-0.371,4.584,1.11,6.11,2.717c1.529,1.605,6.24,2.224,8.022,1.11c0,0,0.763,2.595-1.782,4.201	c-2.547,1.605-4.456,1.235-7.131-0.865c-2.673-2.1-4.965-3.952-8.021-3.952s-5.73-0.864-3.947-2.965	c1.782-2.1,11.841-13.709,11.841-13.709l-5.857,0.124c0,0-2.928-0.494-2.419-3.087C17.7,10.301,19.992,10.178,19.992,10.178z" clip-rule="evenodd"/></svg>